<svg width="203" height="64" viewBox="0 0 203 64" fill="none" xmlns="http://www.w3.org/2000/svg">
<g clip-path="url(#clip0_722_8)">
<g clip-path="url(#clip1_722_8)">
<path d="M55.6 4H16.4C11.7608 4 8 7.76081 8 12.4V51.6C8 56.2392 11.7608 60 16.4 60H55.6C60.2392 60 64 56.2392 64 51.6V12.4C64 7.76081 60.2392 4 55.6 4Z" fill="#F7DF1E"/>
<path d="M43.4375 44.4688C44.5312 46.3281 46.0625 47.6406 48.5781 47.6406C50.7656 47.6406 52.1875 46.5469 52.1875 45.0156C52.1875 43.2656 50.7656 42.6094 48.3594 41.5156L47.0469 40.9688C43.2188 39.3281 40.7031 37.3594 40.7031 33.0938C40.7031 29.1562 43.6562 26.0938 48.3594 26.0938C51.75 26.0938 54.1562 27.2969 55.7969 30.3594L51.75 32.9844C50.875 31.3438 49.8906 30.6875 48.3594 30.6875C46.8281 30.6875 45.8438 31.6719 45.8438 32.9844C45.8438 34.5156 46.8281 35.1719 49.125 36.1562L50.4375 36.7031C54.9219 38.6719 57.4375 40.5312 57.4375 45.0156C57.4375 49.7188 53.7188 52.3438 48.6875 52.3438C43.7656 52.3438 40.5938 50.0469 39.0625 46.9844L43.4375 44.4688ZM24.8438 44.9062C25.7188 46.3281 26.375 47.6406 28.2344 47.6406C29.9844 47.6406 31.0781 46.9844 31.0781 44.3594V26.2031H36.3281V44.1406C36.3281 49.6094 33.1562 52.0156 28.4531 52.0156C24.1875 52.0156 21.7812 49.8281 20.5781 47.2031L24.8438 44.9062Z" fill="black"/>
</g>
<path d="M74.045 16.752L98.573 16.08L98.429 19.296L91.709 19.968L88.733 48.192L83.453 48.672L81.053 21.024L74.333 21.696L74.045 16.752ZM105.121 48.72L102.673 24.96L112.945 23.376L109.873 48.288L105.121 48.72ZM104.161 19.632C103.297 18.736 102.865 17.68 102.865 16.464C102.865 15.248 103.297 14.208 104.161 13.344C105.057 12.448 106.113 12 107.329 12C108.545 12 109.585 12.448 110.449 13.344C111.345 14.208 111.793 15.248 111.793 16.464C111.793 17.68 111.345 18.736 110.449 19.632C109.585 20.496 108.545 20.928 107.329 20.928C106.113 20.928 105.057 20.496 104.161 19.632ZM139.129 22.896C139.737 22.896 140.329 22.992 140.905 23.184C142.057 24.56 142.985 26.64 143.689 29.424C144.425 32.176 144.793 35.264 144.793 38.688C144.793 42.08 144.041 44.672 142.537 46.464C141.065 48.256 138.489 49.152 134.809 49.152C132.185 49.152 129.705 48.608 127.369 47.52L126.073 57.984L121.609 58.416L120.121 24.912L130.393 23.328L129.337 31.776H129.673C130.953 29.024 132.409 26.864 134.041 25.296C135.673 23.696 137.369 22.896 139.129 22.896ZM132.937 46.176C134.121 46.176 135.129 45.952 135.961 45.504C136.441 43.04 136.681 40.72 136.681 38.544C136.681 36.336 136.585 34.304 136.393 32.448C136.201 30.592 135.977 29.312 135.721 28.608C135.017 28.896 134.489 29.136 134.137 29.328C133.785 29.488 133.225 29.936 132.457 30.672C131.689 31.376 131.065 32.224 130.585 33.216C129.305 35.904 128.361 39.648 127.753 44.448C129.193 45.6 130.921 46.176 132.937 46.176ZM151.646 32.208C151.646 28.112 153.806 24.368 158.126 20.976L165.998 26.256C162.446 28.528 160.67 30.912 160.67 33.408C160.67 34.72 161.39 36.432 162.83 38.544C164.302 40.656 165.038 42.304 165.038 43.488C165.038 47.68 162.158 50.912 156.398 53.184L154.286 50.352C156.814 48.976 158.078 47.456 158.078 45.792C158.078 44.224 157.006 42.24 154.862 39.84C154.062 38.944 153.326 37.808 152.654 36.432C151.982 35.056 151.646 33.648 151.646 32.208Z" fill="white"/>
</g>
<defs>
<clipPath id="clip0_722_8">
<rect width="203" height="64" fill="white"/>
</clipPath>
<clipPath id="clip1_722_8">
<rect width="56" height="56" fill="white" transform="translate(8 4)"/>
</clipPath>
</defs>
</svg>
